<svg width="123" height="80" viewBox="0 0 123 80" fill="none" xmlns="http://www.w3.org/2000/svg">
<ellipse cx="61.4565" cy="39.7343" rx="39.0722" ry="39.7345" transform="rotate(180 61.4565 39.7343)" fill="url(#paint0_linear_283_270)"/>
<path d="M116.539 61.4094C116.323 61.3784 115.921 61.193 115.643 61.0693C115.21 60.8529 115.024 60.7293 114.653 60.3274C114.313 60.0183 114.097 59.7091 113.911 59.4C113.602 58.8436 113.262 57.7925 113.108 56.9578C112.737 54.9794 112.582 54.5157 111.964 53.681C111.346 52.8464 110.14 51.6717 110.047 51.7953C109.955 51.8881 109.862 52.4136 109.831 52.97C109.8 53.681 109.862 54.1138 110.295 55.5668C110.635 56.8033 110.697 57.1124 110.697 57.7616C110.697 58.7199 110.387 59.4309 109.707 60.111C108.996 60.822 108.162 61.1621 106.709 61.2548C105.225 61.3784 104.297 61.1002 103.463 60.2656C102.814 59.5546 102.474 58.8745 102.319 57.7307C102.164 56.6796 102.288 55.8141 102.875 53.4956C103.525 50.8988 103.741 49.415 103.71 47.8384C103.679 46.8183 103.648 46.6019 103.339 45.0253C103.246 44.5616 103.215 44.2216 103.215 43.4797C103.215 42.3977 103.246 42.1813 103.617 41.563C104.236 40.5429 105.039 40.1101 106.338 40.1101C107.76 40.1101 108.934 40.5429 109.985 41.4703C111.037 42.3668 111.809 43.6652 113.571 47.4675C114.375 49.1677 114.715 49.8787 115.024 50.4352C115.21 50.8061 115.21 50.8061 115.272 50.6206C115.333 50.2806 115.303 49.3841 115.21 48.6731C115.055 47.8384 114.653 46.0455 114.468 45.6127C114.252 45.149 114.066 44.438 114.004 44.0361C113.911 43.5106 113.911 42.4904 114.004 42.1195C114.313 40.9757 115.241 40.141 116.477 39.8628C117.096 39.7392 118.27 39.7083 119.105 39.801C120.063 39.9246 120.62 40.141 121.331 40.6357C122.474 41.4394 123 42.7068 123 44.5616C123 45.3036 122.845 46.1382 122.351 48.0857C122.165 48.7658 121.949 49.7551 121.856 50.2806C121.671 51.1462 121.671 51.3007 121.702 52.0736C121.702 52.8773 121.733 53.001 121.949 53.8356C122.258 55.1031 122.351 55.845 122.351 57.2361C122.351 58.2871 122.32 58.4726 122.227 58.8126C121.918 59.8637 121.362 60.5129 120.403 60.9766C119.538 61.4094 119.167 61.5021 117.93 61.5021C117.065 61.533 116.879 61.5021 116.539 61.4094Z" fill="#FF511C"/>
<path d="M90.7055 61.5019C89.6236 61.4092 88.6652 61.2237 87.9542 60.8836C86.7486 60.3272 85.4812 58.967 84.7393 57.3904C84.2756 56.4012 83.8428 54.9174 83.6882 53.7427C83.3482 51.2696 83.4718 47.4982 83.9664 45.5816C84.492 43.4486 85.5739 42.1502 87.6451 41.161C88.2943 40.8209 88.7889 40.6354 89.6854 40.4191C90.9837 40.079 91.2929 40.0481 92.9313 40.0481C94.2605 40.0481 94.5078 40.079 95.0025 40.1717C96.2081 40.45 97.7537 41.0991 98.5884 41.7174C99.5158 42.4284 100.505 43.5722 101 44.4996C101.711 45.9216 102.113 48.0546 102.02 50.1567C101.989 51.115 101.834 52.6916 101.68 53.5572C101.494 54.701 101.031 56.2466 100.629 57.1122C99.9486 58.596 98.5575 60.1108 97.3209 60.7291C96.6409 61.0691 95.6825 61.3164 95.0643 61.3164C94.9097 61.3164 94.446 61.3782 94.0441 61.4092C93.1167 61.5019 91.5402 61.5328 90.7055 61.5019ZM93.395 55.041C94.5078 54.7628 94.9715 53.8972 94.7242 52.5989C94.6006 51.9806 94.6006 51.3005 94.7242 50.404C94.817 49.7858 94.817 49.6003 94.7551 49.2293C94.6315 48.4256 94.2605 47.8382 93.7041 47.5291C93.4259 47.3745 93.3331 47.3436 92.9622 47.3436C92.5603 47.3436 92.4676 47.3745 92.2203 47.5291C91.8802 47.7146 91.6638 47.9928 91.5093 48.4256C91.4165 48.6729 91.3856 48.8275 91.3856 49.2602C91.3856 49.8167 91.4165 49.9094 91.6947 50.9605C91.7875 51.3005 91.7875 51.7333 91.6329 52.6916C91.5093 53.4644 91.5402 54.0209 91.7256 54.3918C92.0657 55.041 92.6221 55.2574 93.395 55.041Z" fill="#FF511C"/>
<path d="M75.9969 61.4094C75.7805 61.3784 75.3786 61.193 75.1004 61.0693C74.6676 60.8529 74.4821 60.7293 74.1112 60.3274C73.7711 60.0183 73.5547 59.7091 73.3692 59.4C73.0601 58.8436 72.7201 57.7925 72.5655 56.9578C72.1945 54.9794 72.04 54.5157 71.4217 53.681C70.8034 52.8464 69.5978 51.6717 69.5051 51.7953C69.4123 51.8881 69.3196 52.4136 69.2887 52.97C69.2578 53.681 69.3196 54.1138 69.7524 55.5668C70.0924 56.8033 70.1543 57.1124 70.1543 57.7616C70.1543 58.7199 69.8451 59.4309 69.165 60.111C68.454 60.822 67.6194 61.1621 66.1665 61.2548C64.6826 61.3784 63.7552 61.1002 62.9206 60.2656C62.2714 59.5546 61.9313 58.8745 61.7768 57.7307C61.6222 56.6796 61.7459 55.8141 62.3332 53.4956C62.9824 50.8988 63.1988 49.415 63.1679 47.8384C63.137 46.8183 63.106 46.6019 62.7969 45.0253C62.7042 44.5616 62.6733 44.2216 62.6733 43.4797C62.6733 42.3977 62.7042 42.1813 63.0751 41.563C63.6934 40.5429 64.4971 40.1101 65.7955 40.1101C67.2175 40.1101 68.3922 40.5429 69.4433 41.4703C70.4943 42.3668 71.2671 43.6652 73.0292 47.4675C73.8329 49.1677 74.173 49.8787 74.4821 50.4352C74.6676 50.8061 74.6676 50.8061 74.7294 50.6206C74.7913 50.2806 74.7603 49.3841 74.6676 48.6731C74.513 47.8384 74.1112 46.0455 73.9257 45.6127C73.7093 45.149 73.5238 44.438 73.462 44.0361C73.3692 43.5106 73.3692 42.4904 73.462 42.1195C73.7711 40.9757 74.6985 40.141 75.935 39.8628C76.5533 39.7392 77.728 39.7083 78.5627 39.801C79.521 39.9246 80.0774 40.141 80.7884 40.6357C81.9322 41.4394 82.4577 42.7068 82.4577 44.5616C82.4577 45.3036 82.3032 46.1382 81.8086 48.0857C81.6231 48.7658 81.4067 49.7551 81.3139 50.2806C81.1285 51.1462 81.1285 51.3007 81.1594 52.0736C81.1594 52.8773 81.1903 53.001 81.4067 53.8356C81.7158 55.1031 81.8086 55.845 81.8086 57.2361C81.8086 58.2871 81.7777 58.4726 81.6849 58.8126C81.3758 59.8637 80.8193 60.5129 79.861 60.9766C78.9955 61.4094 78.6245 61.5021 77.388 61.5021C76.5224 61.533 76.3369 61.5021 75.9969 61.4094Z" fill="#FF511C"/>
<path d="M50.1633 61.5019C49.0813 61.4092 48.123 61.2237 47.412 60.8836C46.2064 60.3272 44.9389 58.967 44.197 57.3904C43.7333 56.4012 43.3005 54.9174 43.146 53.7427C42.8059 51.2696 42.9296 47.4982 43.4242 45.5816C43.9497 43.4486 45.0317 42.1502 47.1029 41.161C47.752 40.8209 48.2467 40.6354 49.1431 40.4191C50.4415 40.079 50.7506 40.0481 52.389 40.0481C53.7183 40.0481 53.9656 40.079 54.4602 40.1717C55.6658 40.45 57.2115 41.0991 58.0462 41.7174C58.9736 42.4284 59.9628 43.5722 60.4574 44.4996C61.1684 45.9216 61.5703 48.0546 61.4775 50.1567C61.4466 51.115 61.292 52.6916 61.1375 53.5572C60.952 54.701 60.4883 56.2466 60.0864 57.1122C59.4063 58.596 58.0152 60.1108 56.7787 60.7291C56.0986 61.0691 55.1403 61.3164 54.522 61.3164C54.3675 61.3164 53.9038 61.3782 53.5019 61.4092C52.5745 61.5019 50.9979 61.5328 50.1633 61.5019ZM52.8527 55.041C53.9656 54.7628 54.4293 53.8972 54.182 52.5989C54.0584 51.9806 54.0584 51.3005 54.182 50.404C54.2747 49.7858 54.2747 49.6003 54.2129 49.2293C54.0893 48.4256 53.7183 47.8382 53.1619 47.5291C52.8836 47.3745 52.7909 47.3436 52.4199 47.3436C52.0181 47.3436 51.9253 47.3745 51.678 47.5291C51.338 47.7146 51.1216 47.9928 50.967 48.4256C50.8743 48.6729 50.8434 48.8275 50.8434 49.2602C50.8434 49.8167 50.8743 49.9094 51.1525 50.9605C51.2452 51.3005 51.2452 51.7333 51.0907 52.6916C50.967 53.4644 50.9979 54.0209 51.1834 54.3918C51.5235 55.041 52.0799 55.2574 52.8527 55.041Z" fill="#FF511C"/>
<path d="M30.7073 61.5019C29.6253 61.4092 28.667 61.2237 27.956 60.8836C26.7504 60.3272 25.4829 58.967 24.741 57.3904C24.2773 56.4012 23.8445 54.9174 23.69 53.7427C23.3499 51.2696 23.4736 47.4982 23.9682 45.5816C24.4937 43.4486 25.5757 42.1502 27.6469 41.161C28.2961 40.8209 28.7907 40.6354 29.6871 40.4191C30.9855 40.079 31.2946 40.0481 32.933 40.0481C34.2623 40.0481 34.5096 40.079 35.0042 40.1717C36.2098 40.45 37.7555 41.0991 38.5902 41.7174C39.5176 42.4284 40.5068 43.5722 41.0014 44.4996C41.7124 45.9216 42.1143 48.0546 42.0215 50.1567C41.9906 51.115 41.8361 52.6916 41.6815 53.5572C41.496 54.701 41.0323 56.2466 40.6304 57.1122C39.9503 58.596 38.5592 60.1108 37.3227 60.7291C36.6426 61.0691 35.6843 61.3164 35.0661 61.3164C34.9115 61.3164 34.4478 61.3782 34.0459 61.4092C33.1185 61.5019 31.5419 61.5328 30.7073 61.5019ZM33.3967 55.041C34.5096 54.7628 34.9733 53.8972 34.726 52.5989C34.6024 51.9806 34.6024 51.3005 34.726 50.404C34.8187 49.7858 34.8187 49.6003 34.7569 49.2293C34.6333 48.4256 34.2623 47.8382 33.7059 47.5291C33.4277 47.3745 33.3349 47.3436 32.964 47.3436C32.5621 47.3436 32.4693 47.3745 32.222 47.5291C31.882 47.7146 31.6656 47.9928 31.511 48.4256C31.4183 48.6729 31.3874 48.8275 31.3874 49.2602C31.3874 49.8167 31.4183 49.9094 31.6965 50.9605C31.7892 51.3005 31.7892 51.7333 31.6347 52.6916C31.511 53.4644 31.5419 54.0209 31.7274 54.3918C32.0675 55.041 32.6239 55.2574 33.3967 55.041Z" fill="#FF511C"/>
<path d="M3.9772 61.5019C3.94629 61.5019 3.7299 61.4401 3.48259 61.4092C2.67884 61.2855 1.75145 60.9146 1.1641 60.5127C0.63857 60.1108 0.205785 59.3071 0.0512187 58.3488C-0.0106077 57.916 -0.0106077 57.7305 0.0203055 57.2977C0.143958 56.4012 0.329438 55.8139 1.04044 54.1136C2.09149 51.7024 2.3388 50.7441 2.3388 49.353C2.3388 48.5802 2.24606 48.0546 1.84419 46.7872C1.22592 44.8397 1.04044 43.5104 1.19501 42.7067C1.31866 42.212 1.65871 41.501 1.96784 41.0992C2.61702 40.2954 3.91537 39.7699 5.02825 39.8626C6.88305 40.0481 8.70693 41.3156 9.88163 43.2631C10.3144 44.005 10.9327 45.3652 11.3036 46.3544C11.3964 46.6326 11.4891 46.8181 11.52 46.7872C11.5509 46.7563 11.7055 46.3853 11.8601 45.9216C13.0657 42.8612 14.3022 41.2846 16.157 40.3882C17.5481 39.739 18.8465 39.6772 20.0521 40.2954C20.5467 40.5427 21.1341 41.1919 21.4432 41.7483C21.7832 42.3975 21.8451 42.7994 21.8141 43.6959C21.7832 44.3451 21.7523 44.5305 21.505 45.4888C21.3504 46.0762 21.165 46.7563 21.1031 46.9727C20.7322 47.9928 20.6085 49.013 20.7013 49.9404C20.794 51.2078 21.0413 51.9497 21.9996 54.2064C22.4942 55.3811 22.8034 56.2776 22.927 56.8958C23.0507 57.4523 23.0198 58.256 22.8652 58.8125C22.4324 60.2654 21.6287 60.9146 19.7739 61.3783C18.8156 61.5946 18.0427 61.5637 16.7135 61.2237C15.1987 60.8527 14.2713 60.1726 13.7149 59.0598C13.2821 58.1942 13.2512 57.0195 13.7149 54.9483C13.9004 54.0827 13.9931 52.8771 13.9004 52.1661C13.8694 51.8261 13.8694 51.7951 13.7767 51.8879C13.7458 51.9497 13.4367 52.5062 13.1584 53.1244C12.8493 53.7427 12.5402 54.33 12.4783 54.4228C12.2929 54.6392 11.7983 54.8865 11.52 54.8865C11.2109 54.8865 10.7472 54.6701 10.5617 54.4537C10.4381 54.2991 9.81981 53.0935 9.81981 52.9699C9.81981 52.9699 9.66524 52.6916 9.51067 52.3825C9.20154 51.7951 9.17063 51.7951 9.13971 51.9497C9.1088 52.0425 9.07789 52.5062 9.07789 52.9699C9.07789 53.7427 9.1088 53.9282 9.32519 55.1956C9.75798 57.3286 9.72707 58.1015 9.32519 59.0288C8.89241 59.9562 7.99592 60.6982 6.85213 61.0691C6.17204 61.3164 5.24464 61.471 4.65729 61.5019C4.31725 61.5019 4.03903 61.5019 3.9772 61.5019Z" fill="#FF511C"/>
<defs>
<linearGradient id="paint0_linear_283_270" x1="61.4565" y1="-0.00018692" x2="61.4565" y2="79.4688" gradientUnits="userSpaceOnUse">
<stop offset="0.408654" stop-color="white" stop-opacity="0"/>
<stop offset="1" stop-color="#FFDF2C"/>
</linearGradient>
</defs>
</svg>
